{
 "cells": [
  {
   "cell_type": "code",
   "execution_count": 1,
   "metadata": {},
   "outputs": [],
   "source": [
    "from os import path\n",
    "from glob import glob\n",
    "import ffmpeg\n",
    "\n",
    "FOLDER = \"./assets/riverraid/videos\"\n",
    "PATH = f\"{FOLDER}/*.mp4\"\n",
    "\n",
    "files = tuple(path.abspath(f) for f in glob(PATH))\n"
   ]
  },
  {
   "cell_type": "code",
   "execution_count": 2,
   "metadata": {},
   "outputs": [
    {
     "name": "stderr",
     "output_type": "stream",
     "text": [
      "ffmpeg version 6.0 Copyright (c) 2000-2023 the FFmpeg developers\n",
      "  built with Apple clang version 15.0.0 (clang-1500.0.40.1)\n",
      "  configuration: --prefix=/opt/homebrew/Cellar/ffmpeg/6.0_1 --enable-shared --enable-pthreads --enable-version3 --cc=clang --host-cflags= --host-ldflags='-Wl,-ld_classic' --enable-ffplay --enable-gnutls --enable-gpl --enable-libaom --enable-libaribb24 --enable-libbluray --enable-libdav1d --enable-libjxl --enable-libmp3lame --enable-libopus --enable-librav1e --enable-librist --enable-librubberband --enable-libsnappy --enable-libsrt --enable-libsvtav1 --enable-libtesseract --enable-libtheora --enable-libvidstab --enable-libvmaf --enable-libvorbis --enable-libvpx --enable-libwebp --enable-libx264 --enable-libx265 --enable-libxml2 --enable-libxvid --enable-lzma --enable-libfontconfig --enable-libfreetype --enable-frei0r --enable-libass --enable-libopencore-amrnb --enable-libopencore-amrwb --enable-libopenjpeg --enable-libspeex --enable-libsoxr --enable-libzmq --enable-libzimg --disable-libjack --disable-indev=jack --enable-videotoolbox --enable-audiotoolbox --enable-neon\n",
      "  libavutil      58.  2.100 / 58.  2.100\n",
      "  libavcodec     60.  3.100 / 60.  3.100\n",
      "  libavformat    60.  3.100 / 60.  3.100\n",
      "  libavdevice    60.  1.100 / 60.  1.100\n",
      "  libavfilter     9.  3.100 /  9.  3.100\n",
      "  libswscale      7.  1.100 /  7.  1.100\n",
      "  libswresample   4. 10.100 /  4. 10.100\n",
      "  libpostproc    57.  1.100 / 57.  1.100\n",
      "Input #0, mov,mp4,m4a,3gp,3g2,mj2, from '/Users/luis/dev/darwin/atari/assets/riverraid/videos/800.mp4':\n",
      "  Metadata:\n",
      "    major_brand     : isom\n",
      "    minor_version   : 512\n",
      "    compatible_brands: isomiso2avc1mp41\n",
      "    encoder         : Lavf60.3.100\n",
      "  Duration: 00:00:03.47, start: 0.000000, bitrate: 108 kb/s\n",
      "  Stream #0:0[0x1](und): Video: h264 (High) (avc1 / 0x31637661), yuv420p(progressive), 160x224, 104 kb/s, 30 fps, 30 tbr, 15360 tbn (default)\n",
      "    Metadata:\n",
      "      handler_name    : VideoHandler\n",
      "      vendor_id       : [0][0][0][0]\n",
      "      encoder         : Lavc60.3.100 libx264\n",
      "Stream mapping:\n",
      "  Stream #0:0 -> #0:0 (h264 (native) -> gif (native))\n",
      "Press [q] to stop, [?] for help\n",
      "[swscaler @ 0x128c28000] [swscaler @ 0x128c38000] No accelerated colorspace conversion found from yuv420p to bgr8.\n",
      "[swscaler @ 0x128c28000] [swscaler @ 0x128c48000] No accelerated colorspace conversion found from yuv420p to bgr8.\n",
      "[swscaler @ 0x128c28000] [swscaler @ 0x128c58000] No accelerated colorspace conversion found from yuv420p to bgr8.\n",
      "[swscaler @ 0x128c28000] [swscaler @ 0x128c68000] No accelerated colorspace conversion found from yuv420p to bgr8.\n",
      "[swscaler @ 0x128c28000] [swscaler @ 0x128c78000] No accelerated colorspace conversion found from yuv420p to bgr8.\n",
      "[swscaler @ 0x128c28000] [swscaler @ 0x128c88000] No accelerated colorspace conversion found from yuv420p to bgr8.\n",
      "[swscaler @ 0x128c28000] [swscaler @ 0x128c98000] No accelerated colorspace conversion found from yuv420p to bgr8.\n",
      "[swscaler @ 0x128c28000] [swscaler @ 0x128ca8000] No accelerated colorspace conversion found from yuv420p to bgr8.\n",
      "[swscaler @ 0x128c28000] [swscaler @ 0x128cb8000] No accelerated colorspace conversion found from yuv420p to bgr8.\n",
      "[swscaler @ 0x128c28000] [swscaler @ 0x128cc8000] No accelerated colorspace conversion found from yuv420p to bgr8.\n",
      "[swscaler @ 0x128c28000] [swscaler @ 0x128cd8000] No accelerated colorspace conversion found from yuv420p to bgr8.\n",
      "Output #0, gif, to './assets/riverraid/gif/800.gif':\n",
      "  Metadata:\n",
      "    major_brand     : isom\n",
      "    minor_version   : 512\n",
      "    compatible_brands: isomiso2avc1mp41\n",
      "    encoder         : Lavf60.3.100\n",
      "  Stream #0:0(und): Video: gif, bgr8(pc, gbr/unknown/unknown, progressive), 160x224, q=2-31, 200 kb/s, 30 fps, 100 tbn (default)\n",
      "    Metadata:\n",
      "      handler_name    : VideoHandler\n",
      "      vendor_id       : [0][0][0][0]\n",
      "      encoder         : Lavc60.3.100 gif\n",
      "frame=  104 fps=0.0 q=-0.0 Lsize=     284kB time=00:00:03.43 bitrate= 678.8kbits/s speed=83.9x    \n",
      "video:284kB audio:0kB subtitle:0kB other streams:0kB global headers:0kB muxing overhead: 0.006873%\n",
      "ffmpeg version 6.0 Copyright (c) 2000-2023 the FFmpeg developers\n",
      "  built with Apple clang version 15.0.0 (clang-1500.0.40.1)\n",
      "  configuration: --prefix=/opt/homebrew/Cellar/ffmpeg/6.0_1 --enable-shared --enable-pthreads --enable-version3 --cc=clang --host-cflags= --host-ldflags='-Wl,-ld_classic' --enable-ffplay --enable-gnutls --enable-gpl --enable-libaom --enable-libaribb24 --enable-libbluray --enable-libdav1d --enable-libjxl --enable-libmp3lame --enable-libopus --enable-librav1e --enable-librist --enable-librubberband --enable-libsnappy --enable-libsrt --enable-libsvtav1 --enable-libtesseract --enable-libtheora --enable-libvidstab --enable-libvmaf --enable-libvorbis --enable-libvpx --enable-libwebp --enable-libx264 --enable-libx265 --enable-libxml2 --enable-libxvid --enable-lzma --enable-libfontconfig --enable-libfreetype --enable-frei0r --enable-libass --enable-libopencore-amrnb --enable-libopencore-amrwb --enable-libopenjpeg --enable-libspeex --enable-libsoxr --enable-libzmq --enable-libzimg --disable-libjack --disable-indev=jack --enable-videotoolbox --enable-audiotoolbox --enable-neon\n",
      "  libavutil      58.  2.100 / 58.  2.100\n",
      "  libavcodec     60.  3.100 / 60.  3.100\n",
      "  libavformat    60.  3.100 / 60.  3.100\n",
      "  libavdevice    60.  1.100 / 60.  1.100\n",
      "  libavfilter     9.  3.100 /  9.  3.100\n",
      "  libswscale      7.  1.100 /  7.  1.100\n",
      "  libswresample   4. 10.100 /  4. 10.100\n",
      "  libpostproc    57.  1.100 / 57.  1.100\n",
      "Input #0, mov,mp4,m4a,3gp,3g2,mj2, from '/Users/luis/dev/darwin/atari/assets/riverraid/videos/1400.mp4':\n",
      "  Metadata:\n",
      "    major_brand     : isom\n",
      "    minor_version   : 512\n",
      "    compatible_brands: isomiso2avc1mp41\n",
      "    encoder         : Lavf60.3.100\n",
      "  Duration: 00:00:06.30, start: 0.000000, bitrate: 101 kb/s\n",
      "  Stream #0:0[0x1](und): Video: h264 (High) (avc1 / 0x31637661), yuv420p(progressive), 160x224, 98 kb/s, 30 fps, 30 tbr, 15360 tbn (default)\n",
      "    Metadata:\n",
      "      handler_name    : VideoHandler\n",
      "      vendor_id       : [0][0][0][0]\n",
      "      encoder         : Lavc60.3.100 libx264\n",
      "Stream mapping:\n",
      "  Stream #0:0 -> #0:0 (h264 (native) -> gif (native))\n",
      "Press [q] to stop, [?] for help\n",
      "[swscaler @ 0x120ad8000] [swscaler @ 0x120ae8000] No accelerated colorspace conversion found from yuv420p to bgr8.\n",
      "[swscaler @ 0x120ad8000] [swscaler @ 0x120af8000] No accelerated colorspace conversion found from yuv420p to bgr8.\n",
      "[swscaler @ 0x120ad8000] [swscaler @ 0x120b08000] No accelerated colorspace conversion found from yuv420p to bgr8.\n",
      "[swscaler @ 0x120ad8000] [swscaler @ 0x120b18000] No accelerated colorspace conversion found from yuv420p to bgr8.\n",
      "[swscaler @ 0x120ad8000] [swscaler @ 0x120b28000] No accelerated colorspace conversion found from yuv420p to bgr8.\n",
      "[swscaler @ 0x120ad8000] [swscaler @ 0x120b38000] No accelerated colorspace conversion found from yuv420p to bgr8.\n",
      "[swscaler @ 0x120ad8000] [swscaler @ 0x120b48000] No accelerated colorspace conversion found from yuv420p to bgr8.\n",
      "[swscaler @ 0x120ad8000] [swscaler @ 0x120b58000] No accelerated colorspace conversion found from yuv420p to bgr8.\n",
      "[swscaler @ 0x120ad8000] [swscaler @ 0x120b68000] No accelerated colorspace conversion found from yuv420p to bgr8.\n",
      "[swscaler @ 0x120ad8000] [swscaler @ 0x120b78000] No accelerated colorspace conversion found from yuv420p to bgr8.\n",
      "[swscaler @ 0x120ad8000] [swscaler @ 0x120b88000] No accelerated colorspace conversion found from yuv420p to bgr8.\n",
      "Output #0, gif, to './assets/riverraid/gif/1400.gif':\n",
      "  Metadata:\n",
      "    major_brand     : isom\n",
      "    minor_version   : 512\n",
      "    compatible_brands: isomiso2avc1mp41\n",
      "    encoder         : Lavf60.3.100\n",
      "  Stream #0:0(und): Video: gif, bgr8(pc, gbr/unknown/unknown, progressive), 160x224, q=2-31, 200 kb/s, 30 fps, 100 tbn (default)\n",
      "    Metadata:\n",
      "      handler_name    : VideoHandler\n",
      "      vendor_id       : [0][0][0][0]\n",
      "      encoder         : Lavc60.3.100 gif\n",
      "frame=  189 fps=0.0 q=-0.0 Lsize=     491kB time=00:00:06.27 bitrate= 641.7kbits/s speed= 100x    \n",
      "video:491kB audio:0kB subtitle:0kB other streams:0kB global headers:0kB muxing overhead: 0.003977%\n",
      "ffmpeg version 6.0 Copyright (c) 2000-2023 the FFmpeg developers\n",
      "  built with Apple clang version 15.0.0 (clang-1500.0.40.1)\n",
      "  configuration: --prefix=/opt/homebrew/Cellar/ffmpeg/6.0_1 --enable-shared --enable-pthreads --enable-version3 --cc=clang --host-cflags= --host-ldflags='-Wl,-ld_classic' --enable-ffplay --enable-gnutls --enable-gpl --enable-libaom --enable-libaribb24 --enable-libbluray --enable-libdav1d --enable-libjxl --enable-libmp3lame --enable-libopus --enable-librav1e --enable-librist --enable-librubberband --enable-libsnappy --enable-libsrt --enable-libsvtav1 --enable-libtesseract --enable-libtheora --enable-libvidstab --enable-libvmaf --enable-libvorbis --enable-libvpx --enable-libwebp --enable-libx264 --enable-libx265 --enable-libxml2 --enable-libxvid --enable-lzma --enable-libfontconfig --enable-libfreetype --enable-frei0r --enable-libass --enable-libopencore-amrnb --enable-libopencore-amrwb --enable-libopenjpeg --enable-libspeex --enable-libsoxr --enable-libzmq --enable-libzimg --disable-libjack --disable-indev=jack --enable-videotoolbox --enable-audiotoolbox --enable-neon\n",
      "  libavutil      58.  2.100 / 58.  2.100\n",
      "  libavcodec     60.  3.100 / 60.  3.100\n",
      "  libavformat    60.  3.100 / 60.  3.100\n",
      "  libavdevice    60.  1.100 / 60.  1.100\n",
      "  libavfilter     9.  3.100 /  9.  3.100\n",
      "  libswscale      7.  1.100 /  7.  1.100\n",
      "  libswresample   4. 10.100 /  4. 10.100\n",
      "  libpostproc    57.  1.100 / 57.  1.100\n",
      "Input #0, mov,mp4,m4a,3gp,3g2,mj2, from '/Users/luis/dev/darwin/atari/assets/riverraid/videos/0.mp4':\n",
      "  Metadata:\n",
      "    major_brand     : isom\n",
      "    minor_version   : 512\n",
      "    compatible_brands: isomiso2avc1mp41\n",
      "    encoder         : Lavf60.3.100\n",
      "  Duration: 00:00:01.90, start: 0.000000, bitrate: 95 kb/s\n",
      "  Stream #0:0[0x1](und): Video: h264 (High) (avc1 / 0x31637661), yuv420p(progressive), 160x224, 89 kb/s, 30 fps, 30 tbr, 15360 tbn (default)\n",
      "    Metadata:\n",
      "      handler_name    : VideoHandler\n",
      "      vendor_id       : [0][0][0][0]\n",
      "      encoder         : Lavc60.3.100 libx264\n",
      "Stream mapping:\n",
      "  Stream #0:0 -> #0:0 (h264 (native) -> gif (native))\n",
      "Press [q] to stop, [?] for help\n",
      "[swscaler @ 0x128120000] [swscaler @ 0x128130000] No accelerated colorspace conversion found from yuv420p to bgr8.\n",
      "[swscaler @ 0x128120000] [swscaler @ 0x128140000] No accelerated colorspace conversion found from yuv420p to bgr8.\n",
      "[swscaler @ 0x128120000] [swscaler @ 0x128150000] No accelerated colorspace conversion found from yuv420p to bgr8.\n",
      "[swscaler @ 0x128120000] [swscaler @ 0x128160000] No accelerated colorspace conversion found from yuv420p to bgr8.\n",
      "[swscaler @ 0x128120000] [swscaler @ 0x128170000] No accelerated colorspace conversion found from yuv420p to bgr8.\n",
      "[swscaler @ 0x128120000] [swscaler @ 0x128180000] No accelerated colorspace conversion found from yuv420p to bgr8.\n",
      "[swscaler @ 0x128120000] [swscaler @ 0x128190000] No accelerated colorspace conversion found from yuv420p to bgr8.\n",
      "[swscaler @ 0x128120000] [swscaler @ 0x1281a0000] No accelerated colorspace conversion found from yuv420p to bgr8.\n",
      "[swscaler @ 0x128120000] [swscaler @ 0x1281b0000] No accelerated colorspace conversion found from yuv420p to bgr8.\n",
      "[swscaler @ 0x128120000] [swscaler @ 0x1281c0000] No accelerated colorspace conversion found from yuv420p to bgr8.\n",
      "[swscaler @ 0x128120000] [swscaler @ 0x1281d0000] No accelerated colorspace conversion found from yuv420p to bgr8.\n",
      "Output #0, gif, to './assets/riverraid/gif/0.gif':\n",
      "  Metadata:\n",
      "    major_brand     : isom\n",
      "    minor_version   : 512\n",
      "    compatible_brands: isomiso2avc1mp41\n",
      "    encoder         : Lavf60.3.100\n",
      "  Stream #0:0(und): Video: gif, bgr8(pc, gbr/unknown/unknown, progressive), 160x224, q=2-31, 200 kb/s, 30 fps, 100 tbn (default)\n",
      "    Metadata:\n",
      "      handler_name    : VideoHandler\n",
      "      vendor_id       : [0][0][0][0]\n",
      "      encoder         : Lavc60.3.100 gif\n",
      "frame=   57 fps=0.0 q=-0.0 Lsize=     136kB time=00:00:01.87 bitrate= 595.3kbits/s speed=96.7x    \n",
      "video:136kB audio:0kB subtitle:0kB other streams:0kB global headers:0kB muxing overhead: 0.014374%\n",
      "ffmpeg version 6.0 Copyright (c) 2000-2023 the FFmpeg developers\n",
      "  built with Apple clang version 15.0.0 (clang-1500.0.40.1)\n",
      "  configuration: --prefix=/opt/homebrew/Cellar/ffmpeg/6.0_1 --enable-shared --enable-pthreads --enable-version3 --cc=clang --host-cflags= --host-ldflags='-Wl,-ld_classic' --enable-ffplay --enable-gnutls --enable-gpl --enable-libaom --enable-libaribb24 --enable-libbluray --enable-libdav1d --enable-libjxl --enable-libmp3lame --enable-libopus --enable-librav1e --enable-librist --enable-librubberband --enable-libsnappy --enable-libsrt --enable-libsvtav1 --enable-libtesseract --enable-libtheora --enable-libvidstab --enable-libvmaf --enable-libvorbis --enable-libvpx --enable-libwebp --enable-libx264 --enable-libx265 --enable-libxml2 --enable-libxvid --enable-lzma --enable-libfontconfig --enable-libfreetype --enable-frei0r --enable-libass --enable-libopencore-amrnb --enable-libopencore-amrwb --enable-libopenjpeg --enable-libspeex --enable-libsoxr --enable-libzmq --enable-libzimg --disable-libjack --disable-indev=jack --enable-videotoolbox --enable-audiotoolbox --enable-neon\n",
      "  libavutil      58.  2.100 / 58.  2.100\n",
      "  libavcodec     60.  3.100 / 60.  3.100\n",
      "  libavformat    60.  3.100 / 60.  3.100\n",
      "  libavdevice    60.  1.100 / 60.  1.100\n",
      "  libavfilter     9.  3.100 /  9.  3.100\n",
      "  libswscale      7.  1.100 /  7.  1.100\n",
      "  libswresample   4. 10.100 /  4. 10.100\n",
      "  libpostproc    57.  1.100 / 57.  1.100\n",
      "Input #0, mov,mp4,m4a,3gp,3g2,mj2, from '/Users/luis/dev/darwin/atari/assets/riverraid/videos/1000.mp4':\n",
      "  Metadata:\n",
      "    major_brand     : isom\n",
      "    minor_version   : 512\n",
      "    compatible_brands: isomiso2avc1mp41\n",
      "    encoder         : Lavf60.3.100\n",
      "  Duration: 00:00:04.70, start: 0.000000, bitrate: 111 kb/s\n",
      "  Stream #0:0[0x1](und): Video: h264 (High) (avc1 / 0x31637661), yuv420p(progressive), 160x224, 107 kb/s, 30 fps, 30 tbr, 15360 tbn (default)\n",
      "    Metadata:\n",
      "      handler_name    : VideoHandler\n",
      "      vendor_id       : [0][0][0][0]\n",
      "      encoder         : Lavc60.3.100 libx264\n",
      "Stream mapping:\n",
      "  Stream #0:0 -> #0:0 (h264 (native) -> gif (native))\n",
      "Press [q] to stop, [?] for help\n",
      "[swscaler @ 0x138c38000] [swscaler @ 0x128060000] No accelerated colorspace conversion found from yuv420p to bgr8.\n",
      "[swscaler @ 0x138c38000] [swscaler @ 0x128070000] No accelerated colorspace conversion found from yuv420p to bgr8.\n",
      "[swscaler @ 0x138c38000] [swscaler @ 0x128080000] No accelerated colorspace conversion found from yuv420p to bgr8.\n",
      "[swscaler @ 0x138c38000] [swscaler @ 0x128090000] No accelerated colorspace conversion found from yuv420p to bgr8.\n",
      "[swscaler @ 0x138c38000] [swscaler @ 0x1280a0000] No accelerated colorspace conversion found from yuv420p to bgr8.\n",
      "[swscaler @ 0x138c38000] [swscaler @ 0x1280b0000] No accelerated colorspace conversion found from yuv420p to bgr8.\n",
      "[swscaler @ 0x138c38000] [swscaler @ 0x1280c0000] No accelerated colorspace conversion found from yuv420p to bgr8.\n",
      "[swscaler @ 0x138c38000] [swscaler @ 0x1280d0000] No accelerated colorspace conversion found from yuv420p to bgr8.\n",
      "[swscaler @ 0x138c38000] [swscaler @ 0x1280e0000] No accelerated colorspace conversion found from yuv420p to bgr8.\n",
      "[swscaler @ 0x138c38000] [swscaler @ 0x1280f0000] No accelerated colorspace conversion found from yuv420p to bgr8.\n",
      "[swscaler @ 0x138c38000] [swscaler @ 0x128100000] No accelerated colorspace conversion found from yuv420p to bgr8.\n",
      "Output #0, gif, to './assets/riverraid/gif/1000.gif':\n",
      "  Metadata:\n",
      "    major_brand     : isom\n",
      "    minor_version   : 512\n",
      "    compatible_brands: isomiso2avc1mp41\n",
      "    encoder         : Lavf60.3.100\n",
      "  Stream #0:0(und): Video: gif, bgr8(pc, gbr/unknown/unknown, progressive), 160x224, q=2-31, 200 kb/s, 30 fps, 100 tbn (default)\n",
      "    Metadata:\n",
      "      handler_name    : VideoHandler\n",
      "      vendor_id       : [0][0][0][0]\n",
      "      encoder         : Lavc60.3.100 gif\n",
      "frame=  141 fps=0.0 q=-0.0 Lsize=     377kB time=00:00:04.67 bitrate= 661.1kbits/s speed=97.7x    \n",
      "video:377kB audio:0kB subtitle:0kB other streams:0kB global headers:0kB muxing overhead: 0.005183%\n",
      "ffmpeg version 6.0 Copyright (c) 2000-2023 the FFmpeg developers\n",
      "  built with Apple clang version 15.0.0 (clang-1500.0.40.1)\n",
      "  configuration: --prefix=/opt/homebrew/Cellar/ffmpeg/6.0_1 --enable-shared --enable-pthreads --enable-version3 --cc=clang --host-cflags= --host-ldflags='-Wl,-ld_classic' --enable-ffplay --enable-gnutls --enable-gpl --enable-libaom --enable-libaribb24 --enable-libbluray --enable-libdav1d --enable-libjxl --enable-libmp3lame --enable-libopus --enable-librav1e --enable-librist --enable-librubberband --enable-libsnappy --enable-libsrt --enable-libsvtav1 --enable-libtesseract --enable-libtheora --enable-libvidstab --enable-libvmaf --enable-libvorbis --enable-libvpx --enable-libwebp --enable-libx264 --enable-libx265 --enable-libxml2 --enable-libxvid --enable-lzma --enable-libfontconfig --enable-libfreetype --enable-frei0r --enable-libass --enable-libopencore-amrnb --enable-libopencore-amrwb --enable-libopenjpeg --enable-libspeex --enable-libsoxr --enable-libzmq --enable-libzimg --disable-libjack --disable-indev=jack --enable-videotoolbox --enable-audiotoolbox --enable-neon\n",
      "  libavutil      58.  2.100 / 58.  2.100\n",
      "  libavcodec     60.  3.100 / 60.  3.100\n",
      "  libavformat    60.  3.100 / 60.  3.100\n",
      "  libavdevice    60.  1.100 / 60.  1.100\n",
      "  libavfilter     9.  3.100 /  9.  3.100\n",
      "  libswscale      7.  1.100 /  7.  1.100\n",
      "  libswresample   4. 10.100 /  4. 10.100\n",
      "  libpostproc    57.  1.100 / 57.  1.100\n",
      "Input #0, mov,mp4,m4a,3gp,3g2,mj2, from '/Users/luis/dev/darwin/atari/assets/riverraid/videos/1200.mp4':\n",
      "  Metadata:\n",
      "    major_brand     : isom\n",
      "    minor_version   : 512\n",
      "    compatible_brands: isomiso2avc1mp41\n",
      "    encoder         : Lavf60.3.100\n",
      "  Duration: 00:00:03.73, start: 0.000000, bitrate: 110 kb/s\n",
      "  Stream #0:0[0x1](und): Video: h264 (High) (avc1 / 0x31637661), yuv420p(progressive), 160x224, 106 kb/s, 30 fps, 30 tbr, 15360 tbn (default)\n",
      "    Metadata:\n",
      "      handler_name    : VideoHandler\n",
      "      vendor_id       : [0][0][0][0]\n",
      "      encoder         : Lavc60.3.100 libx264\n",
      "Stream mapping:\n",
      "  Stream #0:0 -> #0:0 (h264 (native) -> gif (native))\n",
      "Press [q] to stop, [?] for help\n",
      "[swscaler @ 0x160018000] [swscaler @ 0x160028000] No accelerated colorspace conversion found from yuv420p to bgr8.\n",
      "[swscaler @ 0x160018000] [swscaler @ 0x160038000] No accelerated colorspace conversion found from yuv420p to bgr8.\n",
      "[swscaler @ 0x160018000] [swscaler @ 0x160048000] No accelerated colorspace conversion found from yuv420p to bgr8.\n",
      "[swscaler @ 0x160018000] [swscaler @ 0x160058000] No accelerated colorspace conversion found from yuv420p to bgr8.\n",
      "[swscaler @ 0x160018000] [swscaler @ 0x160068000] No accelerated colorspace conversion found from yuv420p to bgr8.\n",
      "[swscaler @ 0x160018000] [swscaler @ 0x160078000] No accelerated colorspace conversion found from yuv420p to bgr8.\n",
      "[swscaler @ 0x160018000] [swscaler @ 0x160088000] No accelerated colorspace conversion found from yuv420p to bgr8.\n",
      "[swscaler @ 0x160018000] [swscaler @ 0x160098000] No accelerated colorspace conversion found from yuv420p to bgr8.\n",
      "[swscaler @ 0x160018000] [swscaler @ 0x1600a8000] No accelerated colorspace conversion found from yuv420p to bgr8.\n",
      "[swscaler @ 0x160018000] [swscaler @ 0x1600b8000] No accelerated colorspace conversion found from yuv420p to bgr8.\n",
      "[swscaler @ 0x160018000] [swscaler @ 0x1600c8000] No accelerated colorspace conversion found from yuv420p to bgr8.\n",
      "Output #0, gif, to './assets/riverraid/gif/1200.gif':\n",
      "  Metadata:\n",
      "    major_brand     : isom\n",
      "    minor_version   : 512\n",
      "    compatible_brands: isomiso2avc1mp41\n",
      "    encoder         : Lavf60.3.100\n",
      "  Stream #0:0(und): Video: gif, bgr8(pc, gbr/unknown/unknown, progressive), 160x224, q=2-31, 200 kb/s, 30 fps, 100 tbn (default)\n",
      "    Metadata:\n",
      "      handler_name    : VideoHandler\n",
      "      vendor_id       : [0][0][0][0]\n",
      "      encoder         : Lavc60.3.100 gif\n",
      "frame=  112 fps=0.0 q=-0.0 Lsize=     305kB time=00:00:03.70 bitrate= 674.5kbits/s speed=93.9x    \n",
      "video:305kB audio:0kB subtitle:0kB other streams:0kB global headers:0kB muxing overhead: 0.006412%\n",
      "ffmpeg version 6.0 Copyright (c) 2000-2023 the FFmpeg developers\n",
      "  built with Apple clang version 15.0.0 (clang-1500.0.40.1)\n",
      "  configuration: --prefix=/opt/homebrew/Cellar/ffmpeg/6.0_1 --enable-shared --enable-pthreads --enable-version3 --cc=clang --host-cflags= --host-ldflags='-Wl,-ld_classic' --enable-ffplay --enable-gnutls --enable-gpl --enable-libaom --enable-libaribb24 --enable-libbluray --enable-libdav1d --enable-libjxl --enable-libmp3lame --enable-libopus --enable-librav1e --enable-librist --enable-librubberband --enable-libsnappy --enable-libsrt --enable-libsvtav1 --enable-libtesseract --enable-libtheora --enable-libvidstab --enable-libvmaf --enable-libvorbis --enable-libvpx --enable-libwebp --enable-libx264 --enable-libx265 --enable-libxml2 --enable-libxvid --enable-lzma --enable-libfontconfig --enable-libfreetype --enable-frei0r --enable-libass --enable-libopencore-amrnb --enable-libopencore-amrwb --enable-libopenjpeg --enable-libspeex --enable-libsoxr --enable-libzmq --enable-libzimg --disable-libjack --disable-indev=jack --enable-videotoolbox --enable-audiotoolbox --enable-neon\n",
      "  libavutil      58.  2.100 / 58.  2.100\n",
      "  libavcodec     60.  3.100 / 60.  3.100\n",
      "  libavformat    60.  3.100 / 60.  3.100\n",
      "  libavdevice    60.  1.100 / 60.  1.100\n",
      "  libavfilter     9.  3.100 /  9.  3.100\n",
      "  libswscale      7.  1.100 /  7.  1.100\n",
      "  libswresample   4. 10.100 /  4. 10.100\n",
      "  libpostproc    57.  1.100 / 57.  1.100\n",
      "Input #0, mov,mp4,m4a,3gp,3g2,mj2, from '/Users/luis/dev/darwin/atari/assets/riverraid/videos/900.mp4':\n",
      "  Metadata:\n",
      "    major_brand     : isom\n",
      "    minor_version   : 512\n",
      "    compatible_brands: isomiso2avc1mp41\n",
      "    encoder         : Lavf60.3.100\n",
      "  Duration: 00:00:04.40, start: 0.000000, bitrate: 107 kb/s\n",
      "  Stream #0:0[0x1](und): Video: h264 (High) (avc1 / 0x31637661), yuv420p(progressive), 160x224, 103 kb/s, 30 fps, 30 tbr, 15360 tbn (default)\n",
      "    Metadata:\n",
      "      handler_name    : VideoHandler\n",
      "      vendor_id       : [0][0][0][0]\n",
      "      encoder         : Lavc60.3.100 libx264\n",
      "Stream mapping:\n",
      "  Stream #0:0 -> #0:0 (h264 (native) -> gif (native))\n",
      "Press [q] to stop, [?] for help\n",
      "[swscaler @ 0x1109d8000] [swscaler @ 0x1109e8000] No accelerated colorspace conversion found from yuv420p to bgr8.\n",
      "[swscaler @ 0x1109d8000] [swscaler @ 0x1109f8000] No accelerated colorspace conversion found from yuv420p to bgr8.\n",
      "[swscaler @ 0x1109d8000] [swscaler @ 0x110a08000] No accelerated colorspace conversion found from yuv420p to bgr8.\n",
      "[swscaler @ 0x1109d8000] [swscaler @ 0x110a18000] No accelerated colorspace conversion found from yuv420p to bgr8.\n",
      "[swscaler @ 0x1109d8000] [swscaler @ 0x110a28000] No accelerated colorspace conversion found from yuv420p to bgr8.\n",
      "[swscaler @ 0x1109d8000] [swscaler @ 0x110a38000] No accelerated colorspace conversion found from yuv420p to bgr8.\n",
      "[swscaler @ 0x1109d8000] [swscaler @ 0x110a48000] No accelerated colorspace conversion found from yuv420p to bgr8.\n",
      "[swscaler @ 0x1109d8000] [swscaler @ 0x110a58000] No accelerated colorspace conversion found from yuv420p to bgr8.\n",
      "[swscaler @ 0x1109d8000] [swscaler @ 0x110a68000] No accelerated colorspace conversion found from yuv420p to bgr8.\n",
      "[swscaler @ 0x1109d8000] [swscaler @ 0x110a78000] No accelerated colorspace conversion found from yuv420p to bgr8.\n",
      "[swscaler @ 0x1109d8000] [swscaler @ 0x110a88000] No accelerated colorspace conversion found from yuv420p to bgr8.\n",
      "Output #0, gif, to './assets/riverraid/gif/900.gif':\n",
      "  Metadata:\n",
      "    major_brand     : isom\n",
      "    minor_version   : 512\n",
      "    compatible_brands: isomiso2avc1mp41\n",
      "    encoder         : Lavf60.3.100\n",
      "  Stream #0:0(und): Video: gif, bgr8(pc, gbr/unknown/unknown, progressive), 160x224, q=2-31, 200 kb/s, 30 fps, 100 tbn (default)\n",
      "    Metadata:\n",
      "      handler_name    : VideoHandler\n",
      "      vendor_id       : [0][0][0][0]\n",
      "      encoder         : Lavc60.3.100 gif\n",
      "frame=  132 fps=0.0 q=-0.0 Lsize=     368kB time=00:00:04.37 bitrate= 690.2kbits/s speed=93.7x    \n",
      "video:368kB audio:0kB subtitle:0kB other streams:0kB global headers:0kB muxing overhead: 0.005305%\n",
      "ffmpeg version 6.0 Copyright (c) 2000-2023 the FFmpeg developers\n",
      "  built with Apple clang version 15.0.0 (clang-1500.0.40.1)\n",
      "  configuration: --prefix=/opt/homebrew/Cellar/ffmpeg/6.0_1 --enable-shared --enable-pthreads --enable-version3 --cc=clang --host-cflags= --host-ldflags='-Wl,-ld_classic' --enable-ffplay --enable-gnutls --enable-gpl --enable-libaom --enable-libaribb24 --enable-libbluray --enable-libdav1d --enable-libjxl --enable-libmp3lame --enable-libopus --enable-librav1e --enable-librist --enable-librubberband --enable-libsnappy --enable-libsrt --enable-libsvtav1 --enable-libtesseract --enable-libtheora --enable-libvidstab --enable-libvmaf --enable-libvorbis --enable-libvpx --enable-libwebp --enable-libx264 --enable-libx265 --enable-libxml2 --enable-libxvid --enable-lzma --enable-libfontconfig --enable-libfreetype --enable-frei0r --enable-libass --enable-libopencore-amrnb --enable-libopencore-amrwb --enable-libopenjpeg --enable-libspeex --enable-libsoxr --enable-libzmq --enable-libzimg --disable-libjack --disable-indev=jack --enable-videotoolbox --enable-audiotoolbox --enable-neon\n",
      "  libavutil      58.  2.100 / 58.  2.100\n",
      "  libavcodec     60.  3.100 / 60.  3.100\n",
      "  libavformat    60.  3.100 / 60.  3.100\n",
      "  libavdevice    60.  1.100 / 60.  1.100\n",
      "  libavfilter     9.  3.100 /  9.  3.100\n",
      "  libswscale      7.  1.100 /  7.  1.100\n",
      "  libswresample   4. 10.100 /  4. 10.100\n",
      "  libpostproc    57.  1.100 / 57.  1.100\n",
      "Input #0, mov,mp4,m4a,3gp,3g2,mj2, from '/Users/luis/dev/darwin/atari/assets/riverraid/videos/1300.mp4':\n",
      "  Metadata:\n",
      "    major_brand     : isom\n",
      "    minor_version   : 512\n",
      "    compatible_brands: isomiso2avc1mp41\n",
      "    encoder         : Lavf60.3.100\n",
      "  Duration: 00:00:05.27, start: 0.000000, bitrate: 117 kb/s\n",
      "  Stream #0:0[0x1](und): Video: h264 (High) (avc1 / 0x31637661), yuv420p(progressive), 160x224, 113 kb/s, 30 fps, 30 tbr, 15360 tbn (default)\n",
      "    Metadata:\n",
      "      handler_name    : VideoHandler\n",
      "      vendor_id       : [0][0][0][0]\n",
      "      encoder         : Lavc60.3.100 libx264\n",
      "Stream mapping:\n",
      "  Stream #0:0 -> #0:0 (h264 (native) -> gif (native))\n",
      "Press [q] to stop, [?] for help\n",
      "[swscaler @ 0x130b88000] [swscaler @ 0x130b98000] No accelerated colorspace conversion found from yuv420p to bgr8.\n",
      "[swscaler @ 0x130b88000] [swscaler @ 0x130ba8000] No accelerated colorspace conversion found from yuv420p to bgr8.\n",
      "[swscaler @ 0x130b88000] [swscaler @ 0x130bb8000] No accelerated colorspace conversion found from yuv420p to bgr8.\n",
      "[swscaler @ 0x130b88000] [swscaler @ 0x130bc8000] No accelerated colorspace conversion found from yuv420p to bgr8.\n",
      "[swscaler @ 0x130b88000] [swscaler @ 0x130bd8000] No accelerated colorspace conversion found from yuv420p to bgr8.\n",
      "[swscaler @ 0x130b88000] [swscaler @ 0x130be8000] No accelerated colorspace conversion found from yuv420p to bgr8.\n",
      "[swscaler @ 0x130b88000] [swscaler @ 0x130bf8000] No accelerated colorspace conversion found from yuv420p to bgr8.\n",
      "[swscaler @ 0x130b88000] [swscaler @ 0x130c08000] No accelerated colorspace conversion found from yuv420p to bgr8.\n",
      "[swscaler @ 0x130b88000] [swscaler @ 0x130c18000] No accelerated colorspace conversion found from yuv420p to bgr8.\n",
      "[swscaler @ 0x130b88000] [swscaler @ 0x130c28000] No accelerated colorspace conversion found from yuv420p to bgr8.\n",
      "[swscaler @ 0x130b88000] [swscaler @ 0x130c38000] No accelerated colorspace conversion found from yuv420p to bgr8.\n",
      "Output #0, gif, to './assets/riverraid/gif/1300.gif':\n",
      "  Metadata:\n",
      "    major_brand     : isom\n",
      "    minor_version   : 512\n",
      "    compatible_brands: isomiso2avc1mp41\n",
      "    encoder         : Lavf60.3.100\n",
      "  Stream #0:0(und): Video: gif, bgr8(pc, gbr/unknown/unknown, progressive), 160x224, q=2-31, 200 kb/s, 30 fps, 100 tbn (default)\n",
      "    Metadata:\n",
      "      handler_name    : VideoHandler\n",
      "      vendor_id       : [0][0][0][0]\n",
      "      encoder         : Lavc60.3.100 gif\n",
      "frame=  158 fps=0.0 q=-0.0 Lsize=     456kB time=00:00:05.23 bitrate= 714.1kbits/s speed=96.3x    \n",
      "video:456kB audio:0kB subtitle:0kB other streams:0kB global headers:0kB muxing overhead: 0.004285%\n",
      "ffmpeg version 6.0 Copyright (c) 2000-2023 the FFmpeg developers\n",
      "  built with Apple clang version 15.0.0 (clang-1500.0.40.1)\n",
      "  configuration: --prefix=/opt/homebrew/Cellar/ffmpeg/6.0_1 --enable-shared --enable-pthreads --enable-version3 --cc=clang --host-cflags= --host-ldflags='-Wl,-ld_classic' --enable-ffplay --enable-gnutls --enable-gpl --enable-libaom --enable-libaribb24 --enable-libbluray --enable-libdav1d --enable-libjxl --enable-libmp3lame --enable-libopus --enable-librav1e --enable-librist --enable-librubberband --enable-libsnappy --enable-libsrt --enable-libsvtav1 --enable-libtesseract --enable-libtheora --enable-libvidstab --enable-libvmaf --enable-libvorbis --enable-libvpx --enable-libwebp --enable-libx264 --enable-libx265 --enable-libxml2 --enable-libxvid --enable-lzma --enable-libfontconfig --enable-libfreetype --enable-frei0r --enable-libass --enable-libopencore-amrnb --enable-libopencore-amrwb --enable-libopenjpeg --enable-libspeex --enable-libsoxr --enable-libzmq --enable-libzimg --disable-libjack --disable-indev=jack --enable-videotoolbox --enable-audiotoolbox --enable-neon\n",
      "  libavutil      58.  2.100 / 58.  2.100\n",
      "  libavcodec     60.  3.100 / 60.  3.100\n",
      "  libavformat    60.  3.100 / 60.  3.100\n",
      "  libavdevice    60.  1.100 / 60.  1.100\n",
      "  libavfilter     9.  3.100 /  9.  3.100\n",
      "  libswscale      7.  1.100 /  7.  1.100\n",
      "  libswresample   4. 10.100 /  4. 10.100\n",
      "  libpostproc    57.  1.100 / 57.  1.100\n",
      "Input #0, mov,mp4,m4a,3gp,3g2,mj2, from '/Users/luis/dev/darwin/atari/assets/riverraid/videos/1100.mp4':\n",
      "  Metadata:\n",
      "    major_brand     : isom\n",
      "    minor_version   : 512\n",
      "    compatible_brands: isomiso2avc1mp41\n",
      "    encoder         : Lavf60.3.100\n",
      "  Duration: 00:00:04.07, start: 0.000000, bitrate: 108 kb/s\n",
      "  Stream #0:0[0x1](und): Video: h264 (High) (avc1 / 0x31637661), yuv420p(progressive), 160x224, 104 kb/s, 30 fps, 30 tbr, 15360 tbn (default)\n",
      "    Metadata:\n",
      "      handler_name    : VideoHandler\n",
      "      vendor_id       : [0][0][0][0]\n",
      "      encoder         : Lavc60.3.100 libx264\n",
      "Stream mapping:\n",
      "  Stream #0:0 -> #0:0 (h264 (native) -> gif (native))\n",
      "Press [q] to stop, [?] for help\n",
      "[swscaler @ 0x140038000] [swscaler @ 0x130318000] No accelerated colorspace conversion found from yuv420p to bgr8.\n",
      "[swscaler @ 0x140038000] [swscaler @ 0x130328000] No accelerated colorspace conversion found from yuv420p to bgr8.\n",
      "[swscaler @ 0x140038000] [swscaler @ 0x130338000] No accelerated colorspace conversion found from yuv420p to bgr8.\n",
      "[swscaler @ 0x140038000] [swscaler @ 0x130348000] No accelerated colorspace conversion found from yuv420p to bgr8.\n",
      "[swscaler @ 0x140038000] [swscaler @ 0x130358000] No accelerated colorspace conversion found from yuv420p to bgr8.\n",
      "[swscaler @ 0x140038000] [swscaler @ 0x130368000] No accelerated colorspace conversion found from yuv420p to bgr8.\n",
      "[swscaler @ 0x140038000] [swscaler @ 0x130378000] No accelerated colorspace conversion found from yuv420p to bgr8.\n",
      "[swscaler @ 0x140038000] [swscaler @ 0x130388000] No accelerated colorspace conversion found from yuv420p to bgr8.\n",
      "[swscaler @ 0x140038000] [swscaler @ 0x130398000] No accelerated colorspace conversion found from yuv420p to bgr8.\n",
      "[swscaler @ 0x140038000] [swscaler @ 0x1303a8000] No accelerated colorspace conversion found from yuv420p to bgr8.\n",
      "[swscaler @ 0x140038000] [swscaler @ 0x1303b8000] No accelerated colorspace conversion found from yuv420p to bgr8.\n",
      "Output #0, gif, to './assets/riverraid/gif/1100.gif':\n",
      "  Metadata:\n",
      "    major_brand     : isom\n",
      "    minor_version   : 512\n",
      "    compatible_brands: isomiso2avc1mp41\n",
      "    encoder         : Lavf60.3.100\n",
      "  Stream #0:0(und): Video: gif, bgr8(pc, gbr/unknown/unknown, progressive), 160x224, q=2-31, 200 kb/s, 30 fps, 100 tbn (default)\n",
      "    Metadata:\n",
      "      handler_name    : VideoHandler\n",
      "      vendor_id       : [0][0][0][0]\n",
      "      encoder         : Lavc60.3.100 gif\n",
      "frame=  122 fps=0.0 q=-0.0 Lsize=     335kB time=00:00:04.03 bitrate= 680.6kbits/s speed=90.1x    \n",
      "video:335kB audio:0kB subtitle:0kB other streams:0kB global headers:0kB muxing overhead: 0.005834%\n",
      "ffmpeg version 6.0 Copyright (c) 2000-2023 the FFmpeg developers\n",
      "  built with Apple clang version 15.0.0 (clang-1500.0.40.1)\n",
      "  configuration: --prefix=/opt/homebrew/Cellar/ffmpeg/6.0_1 --enable-shared --enable-pthreads --enable-version3 --cc=clang --host-cflags= --host-ldflags='-Wl,-ld_classic' --enable-ffplay --enable-gnutls --enable-gpl --enable-libaom --enable-libaribb24 --enable-libbluray --enable-libdav1d --enable-libjxl --enable-libmp3lame --enable-libopus --enable-librav1e --enable-librist --enable-librubberband --enable-libsnappy --enable-libsrt --enable-libsvtav1 --enable-libtesseract --enable-libtheora --enable-libvidstab --enable-libvmaf --enable-libvorbis --enable-libvpx --enable-libwebp --enable-libx264 --enable-libx265 --enable-libxml2 --enable-libxvid --enable-lzma --enable-libfontconfig --enable-libfreetype --enable-frei0r --enable-libass --enable-libopencore-amrnb --enable-libopencore-amrwb --enable-libopenjpeg --enable-libspeex --enable-libsoxr --enable-libzmq --enable-libzimg --disable-libjack --disable-indev=jack --enable-videotoolbox --enable-audiotoolbox --enable-neon\n",
      "  libavutil      58.  2.100 / 58.  2.100\n",
      "  libavcodec     60.  3.100 / 60.  3.100\n",
      "  libavformat    60.  3.100 / 60.  3.100\n",
      "  libavdevice    60.  1.100 / 60.  1.100\n",
      "  libavfilter     9.  3.100 /  9.  3.100\n",
      "  libswscale      7.  1.100 /  7.  1.100\n",
      "  libswresample   4. 10.100 /  4. 10.100\n",
      "  libpostproc    57.  1.100 / 57.  1.100\n",
      "Input #0, mov,mp4,m4a,3gp,3g2,mj2, from '/Users/luis/dev/darwin/atari/assets/riverraid/videos/300.mp4':\n",
      "  Metadata:\n",
      "    major_brand     : isom\n",
      "    minor_version   : 512\n",
      "    compatible_brands: isomiso2avc1mp41\n",
      "    encoder         : Lavf60.3.100\n",
      "  Duration: 00:00:06.27, start: 0.000000, bitrate: 104 kb/s\n",
      "  Stream #0:0[0x1](und): Video: h264 (High) (avc1 / 0x31637661), yuv420p(progressive), 160x224, 100 kb/s, 30 fps, 30 tbr, 15360 tbn (default)\n",
      "    Metadata:\n",
      "      handler_name    : VideoHandler\n",
      "      vendor_id       : [0][0][0][0]\n",
      "      encoder         : Lavc60.3.100 libx264\n",
      "Stream mapping:\n",
      "  Stream #0:0 -> #0:0 (h264 (native) -> gif (native))\n",
      "Press [q] to stop, [?] for help\n",
      "[swscaler @ 0x140070000] [swscaler @ 0x130b78000] No accelerated colorspace conversion found from yuv420p to bgr8.\n",
      "[swscaler @ 0x140070000] [swscaler @ 0x130b88000] No accelerated colorspace conversion found from yuv420p to bgr8.\n",
      "[swscaler @ 0x140070000] [swscaler @ 0x130b98000] No accelerated colorspace conversion found from yuv420p to bgr8.\n",
      "[swscaler @ 0x140070000] [swscaler @ 0x130ba8000] No accelerated colorspace conversion found from yuv420p to bgr8.\n",
      "[swscaler @ 0x140070000] [swscaler @ 0x130bb8000] No accelerated colorspace conversion found from yuv420p to bgr8.\n",
      "[swscaler @ 0x140070000] [swscaler @ 0x130bc8000] No accelerated colorspace conversion found from yuv420p to bgr8.\n",
      "[swscaler @ 0x140070000] [swscaler @ 0x130bd8000] No accelerated colorspace conversion found from yuv420p to bgr8.\n",
      "[swscaler @ 0x140070000] [swscaler @ 0x130be8000] No accelerated colorspace conversion found from yuv420p to bgr8.\n",
      "[swscaler @ 0x140070000] [swscaler @ 0x130bf8000] No accelerated colorspace conversion found from yuv420p to bgr8.\n",
      "[swscaler @ 0x140070000] [swscaler @ 0x130c08000] No accelerated colorspace conversion found from yuv420p to bgr8.\n",
      "[swscaler @ 0x140070000] [swscaler @ 0x130c18000] No accelerated colorspace conversion found from yuv420p to bgr8.\n",
      "Output #0, gif, to './assets/riverraid/gif/300.gif':\n",
      "  Metadata:\n",
      "    major_brand     : isom\n",
      "    minor_version   : 512\n",
      "    compatible_brands: isomiso2avc1mp41\n",
      "    encoder         : Lavf60.3.100\n",
      "  Stream #0:0(und): Video: gif, bgr8(pc, gbr/unknown/unknown, progressive), 160x224, q=2-31, 200 kb/s, 30 fps, 100 tbn (default)\n",
      "    Metadata:\n",
      "      handler_name    : VideoHandler\n",
      "      vendor_id       : [0][0][0][0]\n",
      "      encoder         : Lavc60.3.100 gif\n",
      "frame=  188 fps=0.0 q=-0.0 Lsize=     449kB time=00:00:06.23 bitrate= 591.0kbits/s speed= 101x    \n",
      "video:449kB audio:0kB subtitle:0kB other streams:0kB global headers:0kB muxing overhead: 0.004345%\n",
      "ffmpeg version 6.0 Copyright (c) 2000-2023 the FFmpeg developers\n",
      "  built with Apple clang version 15.0.0 (clang-1500.0.40.1)\n",
      "  configuration: --prefix=/opt/homebrew/Cellar/ffmpeg/6.0_1 --enable-shared --enable-pthreads --enable-version3 --cc=clang --host-cflags= --host-ldflags='-Wl,-ld_classic' --enable-ffplay --enable-gnutls --enable-gpl --enable-libaom --enable-libaribb24 --enable-libbluray --enable-libdav1d --enable-libjxl --enable-libmp3lame --enable-libopus --enable-librav1e --enable-librist --enable-librubberband --enable-libsnappy --enable-libsrt --enable-libsvtav1 --enable-libtesseract --enable-libtheora --enable-libvidstab --enable-libvmaf --enable-libvorbis --enable-libvpx --enable-libwebp --enable-libx264 --enable-libx265 --enable-libxml2 --enable-libxvid --enable-lzma --enable-libfontconfig --enable-libfreetype --enable-frei0r --enable-libass --enable-libopencore-amrnb --enable-libopencore-amrwb --enable-libopenjpeg --enable-libspeex --enable-libsoxr --enable-libzmq --enable-libzimg --disable-libjack --disable-indev=jack --enable-videotoolbox --enable-audiotoolbox --enable-neon\n",
      "  libavutil      58.  2.100 / 58.  2.100\n",
      "  libavcodec     60.  3.100 / 60.  3.100\n",
      "  libavformat    60.  3.100 / 60.  3.100\n",
      "  libavdevice    60.  1.100 / 60.  1.100\n",
      "  libavfilter     9.  3.100 /  9.  3.100\n",
      "  libswscale      7.  1.100 /  7.  1.100\n",
      "  libswresample   4. 10.100 /  4. 10.100\n",
      "  libpostproc    57.  1.100 / 57.  1.100\n",
      "Input #0, mov,mp4,m4a,3gp,3g2,mj2, from '/Users/luis/dev/darwin/atari/assets/riverraid/videos/100.mp4':\n",
      "  Metadata:\n",
      "    major_brand     : isom\n",
      "    minor_version   : 512\n",
      "    compatible_brands: isomiso2avc1mp41\n",
      "    encoder         : Lavf60.3.100\n",
      "  Duration: 00:00:03.07, start: 0.000000, bitrate: 106 kb/s\n",
      "  Stream #0:0[0x1](und): Video: h264 (High) (avc1 / 0x31637661), yuv420p(progressive), 160x224, 101 kb/s, 30 fps, 30 tbr, 15360 tbn (default)\n",
      "    Metadata:\n",
      "      handler_name    : VideoHandler\n",
      "      vendor_id       : [0][0][0][0]\n",
      "      encoder         : Lavc60.3.100 libx264\n",
      "Stream mapping:\n",
      "  Stream #0:0 -> #0:0 (h264 (native) -> gif (native))\n",
      "Press [q] to stop, [?] for help\n",
      "[swscaler @ 0x140b20000] [swscaler @ 0x140b30000] No accelerated colorspace conversion found from yuv420p to bgr8.\n",
      "[swscaler @ 0x140b20000] [swscaler @ 0x140b40000] No accelerated colorspace conversion found from yuv420p to bgr8.\n",
      "[swscaler @ 0x140b20000] [swscaler @ 0x140b50000] No accelerated colorspace conversion found from yuv420p to bgr8.\n",
      "[swscaler @ 0x140b20000] [swscaler @ 0x140b60000] No accelerated colorspace conversion found from yuv420p to bgr8.\n",
      "[swscaler @ 0x140b20000] [swscaler @ 0x140b70000] No accelerated colorspace conversion found from yuv420p to bgr8.\n",
      "[swscaler @ 0x140b20000] [swscaler @ 0x140b80000] No accelerated colorspace conversion found from yuv420p to bgr8.\n",
      "[swscaler @ 0x140b20000] [swscaler @ 0x140b90000] No accelerated colorspace conversion found from yuv420p to bgr8.\n",
      "[swscaler @ 0x140b20000] [swscaler @ 0x140ba0000] No accelerated colorspace conversion found from yuv420p to bgr8.\n",
      "[swscaler @ 0x140b20000] [swscaler @ 0x140bb0000] No accelerated colorspace conversion found from yuv420p to bgr8.\n",
      "[swscaler @ 0x140b20000] [swscaler @ 0x140bc0000] No accelerated colorspace conversion found from yuv420p to bgr8.\n",
      "[swscaler @ 0x140b20000] [swscaler @ 0x140bd0000] No accelerated colorspace conversion found from yuv420p to bgr8.\n",
      "Output #0, gif, to './assets/riverraid/gif/100.gif':\n",
      "  Metadata:\n",
      "    major_brand     : isom\n",
      "    minor_version   : 512\n",
      "    compatible_brands: isomiso2avc1mp41\n",
      "    encoder         : Lavf60.3.100\n",
      "  Stream #0:0(und): Video: gif, bgr8(pc, gbr/unknown/unknown, progressive), 160x224, q=2-31, 200 kb/s, 30 fps, 100 tbn (default)\n",
      "    Metadata:\n",
      "      handler_name    : VideoHandler\n",
      "      vendor_id       : [0][0][0][0]\n",
      "      encoder         : Lavc60.3.100 gif\n",
      "frame=   92 fps=0.0 q=-0.0 Lsize=     221kB time=00:00:03.03 bitrate= 598.6kbits/s speed= 101x    \n",
      "video:221kB audio:0kB subtitle:0kB other streams:0kB global headers:0kB muxing overhead: 0.008823%\n",
      "ffmpeg version 6.0 Copyright (c) 2000-2023 the FFmpeg developers\n",
      "  built with Apple clang version 15.0.0 (clang-1500.0.40.1)\n",
      "  configuration: --prefix=/opt/homebrew/Cellar/ffmpeg/6.0_1 --enable-shared --enable-pthreads --enable-version3 --cc=clang --host-cflags= --host-ldflags='-Wl,-ld_classic' --enable-ffplay --enable-gnutls --enable-gpl --enable-libaom --enable-libaribb24 --enable-libbluray --enable-libdav1d --enable-libjxl --enable-libmp3lame --enable-libopus --enable-librav1e --enable-librist --enable-librubberband --enable-libsnappy --enable-libsrt --enable-libsvtav1 --enable-libtesseract --enable-libtheora --enable-libvidstab --enable-libvmaf --enable-libvorbis --enable-libvpx --enable-libwebp --enable-libx264 --enable-libx265 --enable-libxml2 --enable-libxvid --enable-lzma --enable-libfontconfig --enable-libfreetype --enable-frei0r --enable-libass --enable-libopencore-amrnb --enable-libopencore-amrwb --enable-libopenjpeg --enable-libspeex --enable-libsoxr --enable-libzmq --enable-libzimg --disable-libjack --disable-indev=jack --enable-videotoolbox --enable-audiotoolbox --enable-neon\n",
      "  libavutil      58.  2.100 / 58.  2.100\n",
      "  libavcodec     60.  3.100 / 60.  3.100\n",
      "  libavformat    60.  3.100 / 60.  3.100\n",
      "  libavdevice    60.  1.100 / 60.  1.100\n",
      "  libavfilter     9.  3.100 /  9.  3.100\n",
      "  libswscale      7.  1.100 /  7.  1.100\n",
      "  libswresample   4. 10.100 /  4. 10.100\n",
      "  libpostproc    57.  1.100 / 57.  1.100\n",
      "Input #0, mov,mp4,m4a,3gp,3g2,mj2, from '/Users/luis/dev/darwin/atari/assets/riverraid/videos/500.mp4':\n",
      "  Metadata:\n",
      "    major_brand     : isom\n",
      "    minor_version   : 512\n",
      "    compatible_brands: isomiso2avc1mp41\n",
      "    encoder         : Lavf60.3.100\n",
      "  Duration: 00:00:05.40, start: 0.000000, bitrate: 100 kb/s\n",
      "  Stream #0:0[0x1](und): Video: h264 (High) (avc1 / 0x31637661), yuv420p(progressive), 160x224, 96 kb/s, 30 fps, 30 tbr, 15360 tbn (default)\n",
      "    Metadata:\n",
      "      handler_name    : VideoHandler\n",
      "      vendor_id       : [0][0][0][0]\n",
      "      encoder         : Lavc60.3.100 libx264\n",
      "Stream mapping:\n",
      "  Stream #0:0 -> #0:0 (h264 (native) -> gif (native))\n",
      "Press [q] to stop, [?] for help\n",
      "[swscaler @ 0x138b78000] [swscaler @ 0x128110000] No accelerated colorspace conversion found from yuv420p to bgr8.\n",
      "[swscaler @ 0x138b78000] [swscaler @ 0x128120000] No accelerated colorspace conversion found from yuv420p to bgr8.\n",
      "[swscaler @ 0x138b78000] [swscaler @ 0x128130000] No accelerated colorspace conversion found from yuv420p to bgr8.\n",
      "[swscaler @ 0x138b78000] [swscaler @ 0x128140000] No accelerated colorspace conversion found from yuv420p to bgr8.\n",
      "[swscaler @ 0x138b78000] [swscaler @ 0x128150000] No accelerated colorspace conversion found from yuv420p to bgr8.\n",
      "[swscaler @ 0x138b78000] [swscaler @ 0x128160000] No accelerated colorspace conversion found from yuv420p to bgr8.\n",
      "[swscaler @ 0x138b78000] [swscaler @ 0x128170000] No accelerated colorspace conversion found from yuv420p to bgr8.\n",
      "[swscaler @ 0x138b78000] [swscaler @ 0x128180000] No accelerated colorspace conversion found from yuv420p to bgr8.\n",
      "[swscaler @ 0x138b78000] [swscaler @ 0x128190000] No accelerated colorspace conversion found from yuv420p to bgr8.\n",
      "[swscaler @ 0x138b78000] [swscaler @ 0x1281a0000] No accelerated colorspace conversion found from yuv420p to bgr8.\n",
      "[swscaler @ 0x138b78000] [swscaler @ 0x1281b0000] No accelerated colorspace conversion found from yuv420p to bgr8.\n",
      "Output #0, gif, to './assets/riverraid/gif/500.gif':\n",
      "  Metadata:\n",
      "    major_brand     : isom\n",
      "    minor_version   : 512\n",
      "    compatible_brands: isomiso2avc1mp41\n",
      "    encoder         : Lavf60.3.100\n",
      "  Stream #0:0(und): Video: gif, bgr8(pc, gbr/unknown/unknown, progressive), 160x224, q=2-31, 200 kb/s, 30 fps, 100 tbn (default)\n",
      "    Metadata:\n",
      "      handler_name    : VideoHandler\n",
      "      vendor_id       : [0][0][0][0]\n",
      "      encoder         : Lavc60.3.100 gif\n",
      "frame=  162 fps=0.0 q=-0.0 Lsize=     392kB time=00:00:05.37 bitrate= 597.9kbits/s speed= 102x    \n",
      "video:392kB audio:0kB subtitle:0kB other streams:0kB global headers:0kB muxing overhead: 0.004984%\n",
      "ffmpeg version 6.0 Copyright (c) 2000-2023 the FFmpeg developers\n",
      "  built with Apple clang version 15.0.0 (clang-1500.0.40.1)\n",
      "  configuration: --prefix=/opt/homebrew/Cellar/ffmpeg/6.0_1 --enable-shared --enable-pthreads --enable-version3 --cc=clang --host-cflags= --host-ldflags='-Wl,-ld_classic' --enable-ffplay --enable-gnutls --enable-gpl --enable-libaom --enable-libaribb24 --enable-libbluray --enable-libdav1d --enable-libjxl --enable-libmp3lame --enable-libopus --enable-librav1e --enable-librist --enable-librubberband --enable-libsnappy --enable-libsrt --enable-libsvtav1 --enable-libtesseract --enable-libtheora --enable-libvidstab --enable-libvmaf --enable-libvorbis --enable-libvpx --enable-libwebp --enable-libx264 --enable-libx265 --enable-libxml2 --enable-libxvid --enable-lzma --enable-libfontconfig --enable-libfreetype --enable-frei0r --enable-libass --enable-libopencore-amrnb --enable-libopencore-amrwb --enable-libopenjpeg --enable-libspeex --enable-libsoxr --enable-libzmq --enable-libzimg --disable-libjack --disable-indev=jack --enable-videotoolbox --enable-audiotoolbox --enable-neon\n",
      "  libavutil      58.  2.100 / 58.  2.100\n",
      "  libavcodec     60.  3.100 / 60.  3.100\n",
      "  libavformat    60.  3.100 / 60.  3.100\n",
      "  libavdevice    60.  1.100 / 60.  1.100\n",
      "  libavfilter     9.  3.100 /  9.  3.100\n",
      "  libswscale      7.  1.100 /  7.  1.100\n",
      "  libswresample   4. 10.100 /  4. 10.100\n",
      "  libpostproc    57.  1.100 / 57.  1.100\n",
      "Input #0, mov,mp4,m4a,3gp,3g2,mj2, from '/Users/luis/dev/darwin/atari/assets/riverraid/videos/700.mp4':\n",
      "  Metadata:\n",
      "    major_brand     : isom\n",
      "    minor_version   : 512\n",
      "    compatible_brands: isomiso2avc1mp41\n",
      "    encoder         : Lavf60.3.100\n",
      "  Duration: 00:00:03.50, start: 0.000000, bitrate: 108 kb/s\n",
      "  Stream #0:0[0x1](und): Video: h264 (High) (avc1 / 0x31637661), yuv420p(progressive), 160x224, 103 kb/s, 30 fps, 30 tbr, 15360 tbn (default)\n",
      "    Metadata:\n",
      "      handler_name    : VideoHandler\n",
      "      vendor_id       : [0][0][0][0]\n",
      "      encoder         : Lavc60.3.100 libx264\n",
      "Stream mapping:\n",
      "  Stream #0:0 -> #0:0 (h264 (native) -> gif (native))\n",
      "Press [q] to stop, [?] for help\n",
      "[swscaler @ 0x138a70000] [swscaler @ 0x118178000] No accelerated colorspace conversion found from yuv420p to bgr8.\n",
      "[swscaler @ 0x138a70000] [swscaler @ 0x118188000] No accelerated colorspace conversion found from yuv420p to bgr8.\n",
      "[swscaler @ 0x138a70000] [swscaler @ 0x118198000] No accelerated colorspace conversion found from yuv420p to bgr8.\n",
      "[swscaler @ 0x138a70000] [swscaler @ 0x1181a8000] No accelerated colorspace conversion found from yuv420p to bgr8.\n",
      "[swscaler @ 0x138a70000] [swscaler @ 0x1181b8000] No accelerated colorspace conversion found from yuv420p to bgr8.\n",
      "[swscaler @ 0x138a70000] [swscaler @ 0x1181c8000] No accelerated colorspace conversion found from yuv420p to bgr8.\n",
      "[swscaler @ 0x138a70000] [swscaler @ 0x1181d8000] No accelerated colorspace conversion found from yuv420p to bgr8.\n",
      "[swscaler @ 0x138a70000] [swscaler @ 0x1181e8000] No accelerated colorspace conversion found from yuv420p to bgr8.\n",
      "[swscaler @ 0x138a70000] [swscaler @ 0x1181f8000] No accelerated colorspace conversion found from yuv420p to bgr8.\n",
      "[swscaler @ 0x138a70000] [swscaler @ 0x118208000] No accelerated colorspace conversion found from yuv420p to bgr8.\n",
      "[swscaler @ 0x138a70000] [swscaler @ 0x118218000] No accelerated colorspace conversion found from yuv420p to bgr8.\n",
      "Output #0, gif, to './assets/riverraid/gif/700.gif':\n",
      "  Metadata:\n",
      "    major_brand     : isom\n",
      "    minor_version   : 512\n",
      "    compatible_brands: isomiso2avc1mp41\n",
      "    encoder         : Lavf60.3.100\n",
      "  Stream #0:0(und): Video: gif, bgr8(pc, gbr/unknown/unknown, progressive), 160x224, q=2-31, 200 kb/s, 30 fps, 100 tbn (default)\n",
      "    Metadata:\n",
      "      handler_name    : VideoHandler\n",
      "      vendor_id       : [0][0][0][0]\n",
      "      encoder         : Lavc60.3.100 gif\n",
      "frame=  105 fps=0.0 q=-0.0 Lsize=     275kB time=00:00:03.47 bitrate= 649.9kbits/s speed=82.8x    \n",
      "video:275kB audio:0kB subtitle:0kB other streams:0kB global headers:0kB muxing overhead: 0.007095%\n",
      "ffmpeg version 6.0 Copyright (c) 2000-2023 the FFmpeg developers\n",
      "  built with Apple clang version 15.0.0 (clang-1500.0.40.1)\n",
      "  configuration: --prefix=/opt/homebrew/Cellar/ffmpeg/6.0_1 --enable-shared --enable-pthreads --enable-version3 --cc=clang --host-cflags= --host-ldflags='-Wl,-ld_classic' --enable-ffplay --enable-gnutls --enable-gpl --enable-libaom --enable-libaribb24 --enable-libbluray --enable-libdav1d --enable-libjxl --enable-libmp3lame --enable-libopus --enable-librav1e --enable-librist --enable-librubberband --enable-libsnappy --enable-libsrt --enable-libsvtav1 --enable-libtesseract --enable-libtheora --enable-libvidstab --enable-libvmaf --enable-libvorbis --enable-libvpx --enable-libwebp --enable-libx264 --enable-libx265 --enable-libxml2 --enable-libxvid --enable-lzma --enable-libfontconfig --enable-libfreetype --enable-frei0r --enable-libass --enable-libopencore-amrnb --enable-libopencore-amrwb --enable-libopenjpeg --enable-libspeex --enable-libsoxr --enable-libzmq --enable-libzimg --disable-libjack --disable-indev=jack --enable-videotoolbox --enable-audiotoolbox --enable-neon\n",
      "  libavutil      58.  2.100 / 58.  2.100\n",
      "  libavcodec     60.  3.100 / 60.  3.100\n",
      "  libavformat    60.  3.100 / 60.  3.100\n",
      "  libavdevice    60.  1.100 / 60.  1.100\n",
      "  libavfilter     9.  3.100 /  9.  3.100\n",
      "  libswscale      7.  1.100 /  7.  1.100\n",
      "  libswresample   4. 10.100 /  4. 10.100\n",
      "  libpostproc    57.  1.100 / 57.  1.100\n",
      "Input #0, mov,mp4,m4a,3gp,3g2,mj2, from '/Users/luis/dev/darwin/atari/assets/riverraid/videos/200.mp4':\n",
      "  Metadata:\n",
      "    major_brand     : isom\n",
      "    minor_version   : 512\n",
      "    compatible_brands: isomiso2avc1mp41\n",
      "    encoder         : Lavf60.3.100\n",
      "  Duration: 00:00:05.37, start: 0.000000, bitrate: 102 kb/s\n",
      "  Stream #0:0[0x1](und): Video: h264 (High) (avc1 / 0x31637661), yuv420p(progressive), 160x224, 98 kb/s, 30 fps, 30 tbr, 15360 tbn (default)\n",
      "    Metadata:\n",
      "      handler_name    : VideoHandler\n",
      "      vendor_id       : [0][0][0][0]\n",
      "      encoder         : Lavc60.3.100 libx264\n",
      "Stream mapping:\n",
      "  Stream #0:0 -> #0:0 (h264 (native) -> gif (native))\n",
      "Press [q] to stop, [?] for help\n",
      "[swscaler @ 0x150070000] [swscaler @ 0x150080000] No accelerated colorspace conversion found from yuv420p to bgr8.\n",
      "[swscaler @ 0x150070000] [swscaler @ 0x150090000] No accelerated colorspace conversion found from yuv420p to bgr8.\n",
      "[swscaler @ 0x150070000] [swscaler @ 0x1500a0000] No accelerated colorspace conversion found from yuv420p to bgr8.\n",
      "[swscaler @ 0x150070000] [swscaler @ 0x1500b0000] No accelerated colorspace conversion found from yuv420p to bgr8.\n",
      "[swscaler @ 0x150070000] [swscaler @ 0x1500c0000] No accelerated colorspace conversion found from yuv420p to bgr8.\n",
      "[swscaler @ 0x150070000] [swscaler @ 0x1500d0000] No accelerated colorspace conversion found from yuv420p to bgr8.\n",
      "[swscaler @ 0x150070000] [swscaler @ 0x1500e0000] No accelerated colorspace conversion found from yuv420p to bgr8.\n",
      "[swscaler @ 0x150070000] [swscaler @ 0x1500f0000] No accelerated colorspace conversion found from yuv420p to bgr8.\n",
      "[swscaler @ 0x150070000] [swscaler @ 0x150100000] No accelerated colorspace conversion found from yuv420p to bgr8.\n",
      "[swscaler @ 0x150070000] [swscaler @ 0x150110000] No accelerated colorspace conversion found from yuv420p to bgr8.\n",
      "[swscaler @ 0x150070000] [swscaler @ 0x150120000] No accelerated colorspace conversion found from yuv420p to bgr8.\n",
      "Output #0, gif, to './assets/riverraid/gif/200.gif':\n",
      "  Metadata:\n",
      "    major_brand     : isom\n",
      "    minor_version   : 512\n",
      "    compatible_brands: isomiso2avc1mp41\n",
      "    encoder         : Lavf60.3.100\n",
      "  Stream #0:0(und): Video: gif, bgr8(pc, gbr/unknown/unknown, progressive), 160x224, q=2-31, 200 kb/s, 30 fps, 100 tbn (default)\n",
      "    Metadata:\n",
      "      handler_name    : VideoHandler\n",
      "      vendor_id       : [0][0][0][0]\n",
      "      encoder         : Lavc60.3.100 gif\n",
      "frame=  161 fps=0.0 q=-0.0 Lsize=     381kB time=00:00:05.33 bitrate= 586.0kbits/s speed=99.8x    \n",
      "video:381kB audio:0kB subtitle:0kB other streams:0kB global headers:0kB muxing overhead: 0.005123%\n",
      "ffmpeg version 6.0 Copyright (c) 2000-2023 the FFmpeg developers\n",
      "  built with Apple clang version 15.0.0 (clang-1500.0.40.1)\n",
      "  configuration: --prefix=/opt/homebrew/Cellar/ffmpeg/6.0_1 --enable-shared --enable-pthreads --enable-version3 --cc=clang --host-cflags= --host-ldflags='-Wl,-ld_classic' --enable-ffplay --enable-gnutls --enable-gpl --enable-libaom --enable-libaribb24 --enable-libbluray --enable-libdav1d --enable-libjxl --enable-libmp3lame --enable-libopus --enable-librav1e --enable-librist --enable-librubberband --enable-libsnappy --enable-libsrt --enable-libsvtav1 --enable-libtesseract --enable-libtheora --enable-libvidstab --enable-libvmaf --enable-libvorbis --enable-libvpx --enable-libwebp --enable-libx264 --enable-libx265 --enable-libxml2 --enable-libxvid --enable-lzma --enable-libfontconfig --enable-libfreetype --enable-frei0r --enable-libass --enable-libopencore-amrnb --enable-libopencore-amrwb --enable-libopenjpeg --enable-libspeex --enable-libsoxr --enable-libzmq --enable-libzimg --disable-libjack --disable-indev=jack --enable-videotoolbox --enable-audiotoolbox --enable-neon\n",
      "  libavutil      58.  2.100 / 58.  2.100\n",
      "  libavcodec     60.  3.100 / 60.  3.100\n",
      "  libavformat    60.  3.100 / 60.  3.100\n",
      "  libavdevice    60.  1.100 / 60.  1.100\n",
      "  libavfilter     9.  3.100 /  9.  3.100\n",
      "  libswscale      7.  1.100 /  7.  1.100\n",
      "  libswresample   4. 10.100 /  4. 10.100\n",
      "  libpostproc    57.  1.100 / 57.  1.100\n",
      "Input #0, mov,mp4,m4a,3gp,3g2,mj2, from '/Users/luis/dev/darwin/atari/assets/riverraid/videos/1431.mp4':\n",
      "  Metadata:\n",
      "    major_brand     : isom\n",
      "    minor_version   : 512\n",
      "    compatible_brands: isomiso2avc1mp41\n",
      "    encoder         : Lavf60.3.100\n",
      "  Duration: 00:00:04.20, start: 0.000000, bitrate: 122 kb/s\n",
      "  Stream #0:0[0x1](und): Video: h264 (High) (avc1 / 0x31637661), yuv420p(progressive), 160x224, 118 kb/s, 30 fps, 30 tbr, 15360 tbn (default)\n",
      "    Metadata:\n",
      "      handler_name    : VideoHandler\n",
      "      vendor_id       : [0][0][0][0]\n",
      "      encoder         : Lavc60.3.100 libx264\n",
      "Stream mapping:\n",
      "  Stream #0:0 -> #0:0 (h264 (native) -> gif (native))\n",
      "Press [q] to stop, [?] for help\n",
      "[swscaler @ 0x138018000] [swscaler @ 0x138028000] No accelerated colorspace conversion found from yuv420p to bgr8.\n",
      "[swscaler @ 0x138018000] [swscaler @ 0x138038000] No accelerated colorspace conversion found from yuv420p to bgr8.\n",
      "[swscaler @ 0x138018000] [swscaler @ 0x138048000] No accelerated colorspace conversion found from yuv420p to bgr8.\n",
      "[swscaler @ 0x138018000] [swscaler @ 0x138058000] No accelerated colorspace conversion found from yuv420p to bgr8.\n",
      "[swscaler @ 0x138018000] [swscaler @ 0x138068000] No accelerated colorspace conversion found from yuv420p to bgr8.\n",
      "[swscaler @ 0x138018000] [swscaler @ 0x138078000] No accelerated colorspace conversion found from yuv420p to bgr8.\n",
      "[swscaler @ 0x138018000] [swscaler @ 0x138088000] No accelerated colorspace conversion found from yuv420p to bgr8.\n",
      "[swscaler @ 0x138018000] [swscaler @ 0x138098000] No accelerated colorspace conversion found from yuv420p to bgr8.\n",
      "[swscaler @ 0x138018000] [swscaler @ 0x1380a8000] No accelerated colorspace conversion found from yuv420p to bgr8.\n",
      "[swscaler @ 0x138018000] [swscaler @ 0x1380b8000] No accelerated colorspace conversion found from yuv420p to bgr8.\n",
      "[swscaler @ 0x138018000] [swscaler @ 0x1380c8000] No accelerated colorspace conversion found from yuv420p to bgr8.\n",
      "Output #0, gif, to './assets/riverraid/gif/1431.gif':\n",
      "  Metadata:\n",
      "    major_brand     : isom\n",
      "    minor_version   : 512\n",
      "    compatible_brands: isomiso2avc1mp41\n",
      "    encoder         : Lavf60.3.100\n",
      "  Stream #0:0(und): Video: gif, bgr8(pc, gbr/unknown/unknown, progressive), 160x224, q=2-31, 200 kb/s, 30 fps, 100 tbn (default)\n",
      "    Metadata:\n",
      "      handler_name    : VideoHandler\n",
      "      vendor_id       : [0][0][0][0]\n",
      "      encoder         : Lavc60.3.100 gif\n",
      "frame=  126 fps=0.0 q=-0.0 Lsize=     360kB time=00:00:04.17 bitrate= 707.7kbits/s speed=93.6x    \n",
      "video:360kB audio:0kB subtitle:0kB other streams:0kB global headers:0kB muxing overhead: 0.005422%\n",
      "ffmpeg version 6.0 Copyright (c) 2000-2023 the FFmpeg developers\n",
      "  built with Apple clang version 15.0.0 (clang-1500.0.40.1)\n",
      "  configuration: --prefix=/opt/homebrew/Cellar/ffmpeg/6.0_1 --enable-shared --enable-pthreads --enable-version3 --cc=clang --host-cflags= --host-ldflags='-Wl,-ld_classic' --enable-ffplay --enable-gnutls --enable-gpl --enable-libaom --enable-libaribb24 --enable-libbluray --enable-libdav1d --enable-libjxl --enable-libmp3lame --enable-libopus --enable-librav1e --enable-librist --enable-librubberband --enable-libsnappy --enable-libsrt --enable-libsvtav1 --enable-libtesseract --enable-libtheora --enable-libvidstab --enable-libvmaf --enable-libvorbis --enable-libvpx --enable-libwebp --enable-libx264 --enable-libx265 --enable-libxml2 --enable-libxvid --enable-lzma --enable-libfontconfig --enable-libfreetype --enable-frei0r --enable-libass --enable-libopencore-amrnb --enable-libopencore-amrwb --enable-libopenjpeg --enable-libspeex --enable-libsoxr --enable-libzmq --enable-libzimg --disable-libjack --disable-indev=jack --enable-videotoolbox --enable-audiotoolbox --enable-neon\n",
      "  libavutil      58.  2.100 / 58.  2.100\n",
      "  libavcodec     60.  3.100 / 60.  3.100\n",
      "  libavformat    60.  3.100 / 60.  3.100\n",
      "  libavdevice    60.  1.100 / 60.  1.100\n",
      "  libavfilter     9.  3.100 /  9.  3.100\n",
      "  libswscale      7.  1.100 /  7.  1.100\n",
      "  libswresample   4. 10.100 /  4. 10.100\n",
      "  libpostproc    57.  1.100 / 57.  1.100\n",
      "Input #0, mov,mp4,m4a,3gp,3g2,mj2, from '/Users/luis/dev/darwin/atari/assets/riverraid/videos/600.mp4':\n",
      "  Metadata:\n",
      "    major_brand     : isom\n",
      "    minor_version   : 512\n",
      "    compatible_brands: isomiso2avc1mp41\n",
      "    encoder         : Lavf60.3.100\n",
      "  Duration: 00:00:04.70, start: 0.000000, bitrate: 109 kb/s\n",
      "  Stream #0:0[0x1](und): Video: h264 (High) (avc1 / 0x31637661), yuv420p(progressive), 160x224, 105 kb/s, 30 fps, 30 tbr, 15360 tbn (default)\n",
      "    Metadata:\n",
      "      handler_name    : VideoHandler\n",
      "      vendor_id       : [0][0][0][0]\n",
      "      encoder         : Lavc60.3.100 libx264\n",
      "Stream mapping:\n",
      "  Stream #0:0 -> #0:0 (h264 (native) -> gif (native))\n",
      "Press [q] to stop, [?] for help\n",
      "[swscaler @ 0x158c28000] [swscaler @ 0x158c38000] No accelerated colorspace conversion found from yuv420p to bgr8.\n",
      "[swscaler @ 0x158c28000] [swscaler @ 0x158c48000] No accelerated colorspace conversion found from yuv420p to bgr8.\n",
      "[swscaler @ 0x158c28000] [swscaler @ 0x158c58000] No accelerated colorspace conversion found from yuv420p to bgr8.\n",
      "[swscaler @ 0x158c28000] [swscaler @ 0x158c68000] No accelerated colorspace conversion found from yuv420p to bgr8.\n",
      "[swscaler @ 0x158c28000] [swscaler @ 0x158c78000] No accelerated colorspace conversion found from yuv420p to bgr8.\n",
      "[swscaler @ 0x158c28000] [swscaler @ 0x158c88000] No accelerated colorspace conversion found from yuv420p to bgr8.\n",
      "[swscaler @ 0x158c28000] [swscaler @ 0x158c98000] No accelerated colorspace conversion found from yuv420p to bgr8.\n",
      "[swscaler @ 0x158c28000] [swscaler @ 0x158ca8000] No accelerated colorspace conversion found from yuv420p to bgr8.\n",
      "[swscaler @ 0x158c28000] [swscaler @ 0x158cb8000] No accelerated colorspace conversion found from yuv420p to bgr8.\n",
      "[swscaler @ 0x158c28000] [swscaler @ 0x158cc8000] No accelerated colorspace conversion found from yuv420p to bgr8.\n",
      "[swscaler @ 0x158c28000] [swscaler @ 0x158cd8000] No accelerated colorspace conversion found from yuv420p to bgr8.\n",
      "Output #0, gif, to './assets/riverraid/gif/600.gif':\n",
      "  Metadata:\n",
      "    major_brand     : isom\n",
      "    minor_version   : 512\n",
      "    compatible_brands: isomiso2avc1mp41\n",
      "    encoder         : Lavf60.3.100\n",
      "  Stream #0:0(und): Video: gif, bgr8(pc, gbr/unknown/unknown, progressive), 160x224, q=2-31, 200 kb/s, 30 fps, 100 tbn (default)\n",
      "    Metadata:\n",
      "      handler_name    : VideoHandler\n",
      "      vendor_id       : [0][0][0][0]\n",
      "      encoder         : Lavc60.3.100 gif\n",
      "frame=  141 fps=0.0 q=-0.0 Lsize=     374kB time=00:00:04.67 bitrate= 656.3kbits/s speed=97.2x    \n",
      "video:374kB audio:0kB subtitle:0kB other streams:0kB global headers:0kB muxing overhead: 0.005220%\n",
      "ffmpeg version 6.0 Copyright (c) 2000-2023 the FFmpeg developers\n",
      "  built with Apple clang version 15.0.0 (clang-1500.0.40.1)\n",
      "  configuration: --prefix=/opt/homebrew/Cellar/ffmpeg/6.0_1 --enable-shared --enable-pthreads --enable-version3 --cc=clang --host-cflags= --host-ldflags='-Wl,-ld_classic' --enable-ffplay --enable-gnutls --enable-gpl --enable-libaom --enable-libaribb24 --enable-libbluray --enable-libdav1d --enable-libjxl --enable-libmp3lame --enable-libopus --enable-librav1e --enable-librist --enable-librubberband --enable-libsnappy --enable-libsrt --enable-libsvtav1 --enable-libtesseract --enable-libtheora --enable-libvidstab --enable-libvmaf --enable-libvorbis --enable-libvpx --enable-libwebp --enable-libx264 --enable-libx265 --enable-libxml2 --enable-libxvid --enable-lzma --enable-libfontconfig --enable-libfreetype --enable-frei0r --enable-libass --enable-libopencore-amrnb --enable-libopencore-amrwb --enable-libopenjpeg --enable-libspeex --enable-libsoxr --enable-libzmq --enable-libzimg --disable-libjack --disable-indev=jack --enable-videotoolbox --enable-audiotoolbox --enable-neon\n",
      "  libavutil      58.  2.100 / 58.  2.100\n",
      "  libavcodec     60.  3.100 / 60.  3.100\n",
      "  libavformat    60.  3.100 / 60.  3.100\n",
      "  libavdevice    60.  1.100 / 60.  1.100\n",
      "  libavfilter     9.  3.100 /  9.  3.100\n",
      "  libswscale      7.  1.100 /  7.  1.100\n",
      "  libswresample   4. 10.100 /  4. 10.100\n",
      "  libpostproc    57.  1.100 / 57.  1.100\n",
      "Input #0, mov,mp4,m4a,3gp,3g2,mj2, from '/Users/luis/dev/darwin/atari/assets/riverraid/videos/400.mp4':\n",
      "  Metadata:\n",
      "    major_brand     : isom\n",
      "    minor_version   : 512\n",
      "    compatible_brands: isomiso2avc1mp41\n",
      "    encoder         : Lavf60.3.100\n",
      "  Duration: 00:00:05.33, start: 0.000000, bitrate: 110 kb/s\n",
      "  Stream #0:0[0x1](und): Video: h264 (High) (avc1 / 0x31637661), yuv420p(progressive), 160x224, 106 kb/s, 30 fps, 30 tbr, 15360 tbn (default)\n",
      "    Metadata:\n",
      "      handler_name    : VideoHandler\n",
      "      vendor_id       : [0][0][0][0]\n",
      "      encoder         : Lavc60.3.100 libx264\n",
      "Stream mapping:\n",
      "  Stream #0:0 -> #0:0 (h264 (native) -> gif (native))\n",
      "Press [q] to stop, [?] for help\n",
      "[swscaler @ 0x138ac8000] [swscaler @ 0x150110000] No accelerated colorspace conversion found from yuv420p to bgr8.\n",
      "[swscaler @ 0x138ac8000] [swscaler @ 0x150120000] No accelerated colorspace conversion found from yuv420p to bgr8.\n",
      "[swscaler @ 0x138ac8000] [swscaler @ 0x150130000] No accelerated colorspace conversion found from yuv420p to bgr8.\n",
      "[swscaler @ 0x138ac8000] [swscaler @ 0x150140000] No accelerated colorspace conversion found from yuv420p to bgr8.\n",
      "[swscaler @ 0x138ac8000] [swscaler @ 0x150150000] No accelerated colorspace conversion found from yuv420p to bgr8.\n",
      "[swscaler @ 0x138ac8000] [swscaler @ 0x150160000] No accelerated colorspace conversion found from yuv420p to bgr8.\n",
      "[swscaler @ 0x138ac8000] [swscaler @ 0x150170000] No accelerated colorspace conversion found from yuv420p to bgr8.\n",
      "[swscaler @ 0x138ac8000] [swscaler @ 0x150180000] No accelerated colorspace conversion found from yuv420p to bgr8.\n",
      "[swscaler @ 0x138ac8000] [swscaler @ 0x150190000] No accelerated colorspace conversion found from yuv420p to bgr8.\n",
      "[swscaler @ 0x138ac8000] [swscaler @ 0x1501a0000] No accelerated colorspace conversion found from yuv420p to bgr8.\n",
      "[swscaler @ 0x138ac8000] [swscaler @ 0x1501b0000] No accelerated colorspace conversion found from yuv420p to bgr8.\n",
      "Output #0, gif, to './assets/riverraid/gif/400.gif':\n",
      "  Metadata:\n",
      "    major_brand     : isom\n",
      "    minor_version   : 512\n",
      "    compatible_brands: isomiso2avc1mp41\n",
      "    encoder         : Lavf60.3.100\n",
      "  Stream #0:0(und): Video: gif, bgr8(pc, gbr/unknown/unknown, progressive), 160x224, q=2-31, 200 kb/s, 30 fps, 100 tbn (default)\n",
      "    Metadata:\n",
      "      handler_name    : VideoHandler\n",
      "      vendor_id       : [0][0][0][0]\n",
      "      encoder         : Lavc60.3.100 gif\n",
      "frame=  160 fps=0.0 q=-0.0 Lsize=     416kB time=00:00:05.30 bitrate= 642.9kbits/s speed=61.9x    \n",
      "video:416kB audio:0kB subtitle:0kB other streams:0kB global headers:0kB muxing overhead: 0.004696%\n"
     ]
    }
   ],
   "source": [
    "GIF_FOLDER = \"./assets/riverraid/gif\"\n",
    "for f in files:\n",
    "    filename = path.basename(f)\n",
    "    stream = ffmpeg.input(f)\n",
    "    stream = ffmpeg.output(\n",
    "        stream,\n",
    "        f\"{GIF_FOLDER}/{filename.split('.')[0]}.gif\",\n",
    "        **{\"loop\": 0, \"f\": \"gif\"},\n",
    "    )\n",
    "    ffmpeg.run(stream, cmd=\"/opt/homebrew/bin/ffmpeg\")\n"
   ]
  }
 ],
 "metadata": {
  "kernelspec": {
   "display_name": ".venv",
   "language": "python",
   "name": "python3"
  },
  "language_info": {
   "codemirror_mode": {
    "name": "ipython",
    "version": 3
   },
   "file_extension": ".py",
   "mimetype": "text/x-python",
   "name": "python",
   "nbconvert_exporter": "python",
   "pygments_lexer": "ipython3",
   "version": "3.10.12"
  }
 },
 "nbformat": 4,
 "nbformat_minor": 2
}
